# xmcd CD database file
#
# Track frame offsets:
#	150
#	18693
#	33768
#	48056
#	64706
#	79894
#	96657
#	108582
#	129686
#	145343
#	160240
#	180594
#
# Disc length: 2624 seconds
#
# Revision: 1
# Processed by: cddbd v1.5.2PL0 Copyright (c) Steve Scherf et al.
# Submitted via: CDex 1.79
#
DISCID=a30a3e0c
DTITLE=Clinton Gregory - Too Much Ain't Enough
DYEAR=2012
DGENRE=Country
TTITLE0=Too Country For Nashville
TTITLE1=Bridges
TTITLE2=You Play Like Chet
TTITLE3=Has Love Taken Its Toll
TTITLE4=It Took Every Tear
TTITLE5=Too Much Ain't Enough
TTITLE6=If That Ain't Jones
TTITLE7=She Did
TTITLE8=Chase Away The Lonely
TTITLE9=You Smile
TTITLE10=Crucifixion
TTITLE11=The New
EXTD=YEAR: 2012
EXTT0=
EXTT1=
EXTT2=
EXTT3=
EXTT4=
EXTT5=
EXTT6=
EXTT7=
EXTT8=
EXTT9=
EXTT10=
EXTT11=
PLAYORDER=
